<?xml version="1.0" encoding="utf-8"?>
<!-- Generator: Adobe Illustrator 27.5.0, SVG Export Plug-In . SVG Version: 6.00 Build 0)  -->
<svg version="1.1" xmlns="http://www.w3.org/2000/svg" xmlns:xlink="http://www.w3.org/1999/xlink" x="0px" y="0px"
	 viewBox="0 0 500 500.001" style="enable-background:new 0 0 500 500.001;" xml:space="preserve">
<g id="BACKGROUND">
	<rect width="499.999" height="499.999"/>
</g>
<g id="OBJECTS">
	<path style="fill:#FFFFFF;" d="M428.823,245.578l-0.1-2.684l-0.201-5.368c-0.094-1.789-0.08-3.578-0.266-5.365l-0.551-5.359
		c-0.56-7.158-1.922-14.249-3.215-21.328l-2.559-10.518l-0.322-1.314c-0.117-0.435-0.268-0.863-0.398-1.295l-0.82-2.585
		l-1.647-5.167c-4.641-13.696-10.914-26.889-18.789-39.08c-7.881-12.176-17.281-23.412-28.066-33.102
		c-21.549-19.435-47.935-33.052-75.754-39.975c-13.908-3.492-28.176-5.406-42.449-5.721c-14.278-0.297-28.541,1.048-42.479,3.789
		l-5.229,1.024l-5.161,1.317c-3.436,0.889-6.894,1.692-10.246,2.858l-5.062,1.626l-2.529,0.814l-0.632,0.204
		c-0.667,0.232-0.355,0.131-0.581,0.213l-0.296,0.117l-1.186,0.468l-9.491,3.761l-9.902,4.73c-0.839,0.38-1.621,0.818-2.39,1.27
		l-2.329,1.331l-4.651,2.666c-6.092,3.733-12.008,7.771-17.547,12.288c-11.132,8.957-20.94,19.481-29.19,31.014
		c-8.26,11.538-14.883,24.123-20.025,37.181c-5.129,13.072-8.795,26.639-11.031,40.387c-2.184,13.759-2.981,27.684-2.447,41.527
		l0.229,5.189c0.111,1.727,0.291,3.451,0.437,5.176c0.179,1.723,0.277,3.449,0.523,5.164l0.71,5.143l0.357,2.568l0.472,2.553
		l0.946,5.1c0.334,1.695,0.775,3.373,1.157,5.057c0.417,1.68,0.74,3.375,1.26,5.029l1.44,4.982l0.36,1.244l0.426,1.227l0.858,2.449
		c1.07,3.285,2.477,6.459,3.807,9.645c2.893,6.285,6.243,12.377,10.419,17.902c0.369,0.486,1.058,0.621,1.582,0.287
		c0.553-0.35,0.718-1.084,0.367-1.637l-0.014-0.021c-3.585-5.656-6.395-11.75-8.752-17.996c-1.063-3.176-2.199-6.313-3.005-9.566
		l-0.667-2.414l-0.337-1.205l-0.271-1.227l-1.086-4.895c-2.738-13.096-3.604-26.523-3.466-39.848
		c0.427-26.661,5.977-53.209,16.658-77.252c10.685-24.016,26.91-45.347,47.617-60.787c5.134-3.908,10.595-7.361,16.196-10.541
		l4.277-2.258l2.135-1.131c0.71-0.388,1.422-0.758,2.146-1.049l8.613-3.812l9.573-3.472l1.199-0.433l0.3-0.108
		c-0.025,0.011,0.48-0.178,0.019-0.002l0.586-0.169l2.347-0.676l4.688-1.355c3.102-0.989,6.295-1.619,9.462-2.342l4.751-1.072
		l4.804-0.788c12.787-2.159,25.774-3.084,38.68-2.489c12.9,0.634,25.703,2.589,38.094,5.97c24.762,6.747,47.9,19.144,66.516,36.453
		c9.334,8.614,17.453,18.483,24.223,29.19c6.768,10.715,12.139,22.298,16.105,34.378l1.402,4.562l0.705,2.279
		c0.113,0.381,0.244,0.757,0.344,1.142l0.27,1.166l2.17,9.316c1.064,6.301,2.24,12.588,2.662,19.002l0.453,4.787
		c0.156,1.595,0.115,3.212,0.184,4.817l0.135,4.822l0.068,2.411c0.023,0.804,0.063,1.607,0.01,2.414l-0.348,9.673l-0.084,2.418
		c-0.053,0.797-0.15,1.576-0.223,2.365l-0.461,4.717c-0.344,3.182-0.475,6.182-1.111,9.635l-1.59,10.072l-0.197,1.258l-0.014,0.082
		c0.01-0.07-0.045,0.236-0.043,0.199l-0.123,0.586l-0.492,2.344c-0.34,1.561-0.635,3.131-0.994,4.684l-1.166,4.631
		c-0.199,0.77-0.379,1.547-0.592,2.313l-0.684,2.279l-1.371,4.559l-1.564,4.484c-0.266,0.744-0.506,1.5-0.791,2.238l-0.881,2.197
		c-0.598,1.461-1.148,2.943-1.779,4.389c-2.525,5.779-5.385,11.389-8.57,16.799c-3.268,5.355-6.813,10.533-10.713,15.432
		c-3.951,4.857-8.197,9.467-12.729,13.789c-9.15,8.551-19.41,15.961-30.553,21.85c-22.23,11.867-47.584,18.225-72.887,18.66
		c-12.641,0.178-25.285-1.158-37.299-4.238c-11.982-3.08-23.393-7.984-32.698-14.947c-4.665-3.455-8.682-7.478-11.91-11.895
		c-1.665-2.186-2.965-4.551-4.2-6.932c-0.29-0.602-0.527-1.227-0.799-1.836c-0.245-0.619-0.579-1.209-0.757-1.852
		c-0.393-1.273-0.93-2.502-1.193-3.814l-0.499-1.94c-0.138-0.654-0.223-1.322-0.343-1.98c-0.095-0.666-0.272-1.315-0.311-1.992
		l-0.178-2.023l-0.098-1.012l-0.009-0.916l-0.04-1.816c-0.058-0.496,0.046-1.5,0.089-2.313l0.164-2.543l1.123-9.246l1.556-9.664
		c2.3-12.891,5.467-25.752,9.137-38.52c3.655-12.777,7.836-25.467,12.376-38.057c4.543-12.589,9.449-25.083,14.63-37.482
		c5.172-12.402,10.582-24.727,16.24-36.949c5.648-12.226,11.548-24.347,17.583-36.398c3.03-6.02,6.109-12.014,9.24-17.976
		c0.028-0.054,0.057-0.107,0.085-0.161l4.814,13.552l5.271,16.515l1.305,4.137l1.213,4.179l2.428,8.358l2.422,8.36l2.272,8.423
		c1.49,5.624,3.08,11.211,4.49,16.866l4.291,16.939c1.412,5.652,2.736,11.334,4.109,16.999l2.035,8.506l1.957,8.529
		c1.287,5.691,2.643,11.363,3.877,17.07l3.766,17.102l3.643,17.133l3.551,17.154l1.772,8.793l-0.307-0.375
		c-1.063-1.303-2.125-2.602-3.26-3.852c-2.227-2.525-4.428-5.06-6.789-7.467c-1.174-1.209-2.291-2.457-3.506-3.627l-3.619-3.518
		c-1.182-1.191-2.469-2.287-3.711-3.418c-1.264-1.113-2.469-2.277-3.785-3.332l-3.879-3.219c-1.314-1.047-2.666-2.053-3.996-3.076
		c-1.314-1.041-2.705-1.992-4.078-2.959c-1.369-0.969-2.738-1.936-4.166-2.824c-2.797-1.852-5.691-3.557-8.607-5.201
		c-1.485-0.783-2.946-1.596-4.441-2.348c-1.514-0.721-3.004-1.477-4.528-2.164c-3.058-1.357-6.143-2.635-9.299-3.721
		c-3.134-1.135-6.354-2.025-9.571-2.846c-3.24-0.758-6.505-1.377-9.798-1.768c-3.296-0.373-6.596-0.6-9.934-0.359
		c-0.251,0.018-0.453,0.221-0.463,0.478c-0.011,0.275,0.204,0.508,0.479,0.52l0.024,0.002c3.192,0.127,6.403,0.707,9.534,1.426
		c3.137,0.736,6.216,1.686,9.241,2.76c3.005,1.141,5.98,2.332,8.853,3.756c2.892,1.371,5.694,2.922,8.448,4.535
		c1.373,0.813,2.709,1.691,4.061,2.531c1.335,0.871,2.635,1.801,3.951,2.695c2.585,1.865,5.128,3.777,7.569,5.82
		c1.248,0.984,2.436,2.045,3.623,3.102c1.189,1.055,2.391,2.088,3.521,3.213c1.143,1.105,2.303,2.188,3.426,3.309l3.301,3.434
		c1.121,1.119,2.135,2.354,3.201,3.525c1.045,1.195,2.131,2.346,3.117,3.596l3.02,3.678c1.012,1.217,1.935,2.52,2.904,3.772
		c1.955,2.494,3.756,5.115,5.574,7.711c0.928,1.283,1.789,2.617,2.648,3.955l2.586,3.992c1.672,2.699,3.275,5.443,4.904,8.158
		c1.529,2.789,3.084,5.553,4.586,8.346l4.303,8.5l4.041,8.631l0.002,0.004l0.102,0.191c1.865,3.443,5.797,5.451,9.854,4.693
		c5.033-0.94,8.35-5.781,7.408-10.815l-3.244-17.367l-3.361-17.303l-3.457-17.281l-3.551-17.262l-3.643-17.246l-3.77-17.223
		c-1.232-5.744-2.592-11.467-3.883-17.203l-1.961-8.598l-2.041-8.585c-1.379-5.721-2.707-11.449-4.127-17.163l-4.316-17.132
		c-1.416-5.714-3.025-11.398-4.527-17.099l-2.293-8.544l-2.455-8.52l-2.463-8.518l-1.23-4.259l-1.33-4.245
		c-1.801-5.656-3.555-11.318-5.395-16.969l-5.977-16.892c-2.211-5.608-4.551-11.202-6.828-16.801l-0.002-0.003
		c-0.727-1.842-2.051-3.471-3.885-4.559c-4.395-2.607-10.072-1.158-12.679,3.237l-0.251,0.422
		c-3.582,6.038-6.946,11.935-10.287,17.955c-3.33,5.999-6.603,12.023-9.826,18.074c-6.452,12.099-12.621,24.345-18.613,36.688
		c-11.979,24.689-23.041,49.875-32.737,75.724c-9.657,25.853-18.141,52.342-23.322,80.064l-1.76,10.455l-0.689,5.291l-0.341,2.645
		l-0.17,1.324l-0.085,0.66c0.02-0.27-0.077,0.74-0.073,0.752l-0.023,0.318l-0.183,2.543c-0.053,0.883-0.147,1.572-0.134,2.775
		l-0.001,3.281c0.006,0.543,0.003,1.102,0.022,1.633l0.119,1.529l0.255,3.055c0.071,1.02,0.293,2.033,0.438,3.049
		c0.172,1.014,0.317,2.031,0.523,3.041l0.731,3.008c0.436,2.02,1.18,3.955,1.814,5.92c0.299,0.992,0.759,1.918,1.14,2.877
		c0.407,0.947,0.789,1.908,1.228,2.84c1.826,3.682,3.841,7.279,6.254,10.541c4.744,6.588,10.443,12.301,16.685,16.955
		c12.505,9.361,26.616,15.252,40.898,18.977c14.324,3.691,28.955,5.225,43.489,5.047c29.035-0.477,57.945-7.568,83.645-21.469
		c12.865-6.875,24.816-15.547,35.48-25.607c5.289-5.08,10.246-10.502,14.844-16.217c4.551-5.754,8.678-11.824,12.455-18.094
		c3.693-6.316,6.986-12.85,9.873-19.541c0.721-1.674,1.355-3.379,2.035-5.066l1.002-2.539c0.322-0.85,0.6-1.715,0.9-2.57l1.77-5.152
		l1.547-5.209l0.768-2.607c0.238-0.871,0.441-1.752,0.664-2.627l1.301-5.264c0.404-1.758,0.728-3.529,1.088-5.295l0.527-2.652
		l0.133-0.662c0.045-0.256-0.01,0.105,0.119-0.658l0.045-0.315l0.188-1.262c0.961-6.768,2.127-13.234,2.629-20.709l0.477-5.435
		c0.072-0.904,0.17-1.815,0.221-2.713l0.074-2.678l0.275-10.707C428.903,247.369,428.854,246.473,428.823,245.578z"/>
</g>
</svg>
